PathFileType	4	(X/Y/Z)	Kaydara																																																																																																																									
DataRate	CameraRate	NumFrames	NumMarkers	Units	OrigDataRate	OrigDataStartFrame	OrigNumFrames																																																																																																																					
30	30	5	41	mm	30	243	321																																																																																																																					
Frame#	Time	PAIB_LFHD			PAIB_RFHD			PAIB_LBHD			PAIB_RBHD			PAIB_LFTShould			PAIB_RFTShould			PAIB_LRRShould			PAIB_RRRShould			PAIB_T10			PAIB_STRN			PAIB_TRUN			PAIB_LSHO			PAIB_LUPA			PAIB_LELB			PAIB_LFRM			PAIB_LWRA			PAIB_LWRB			PAIB_LFIN			PAIB_RSHO			PAIB_RUPA			PAIB_RELB			PAIB_RFRM			PAIB_RWRA			PAIB_RWRB			PAIB_RFIN			PAIB_LFWT			PAIB_RFWT			PAIB_LBWT			PAIB_RBWT			PAIB_LTHI			PAIB_LKNE			PAIB_LSHN			PAIB_LANK			PAIB_LHEE			PAIB_LTOE			PAIB_RTHI			PAIB_RKNE			PAIB_RSHN			PAIB_RANK			PAIB_RHEE			PAIB_RTOE		
		X1	Y1	Z1	X2	Y2	Z2	X3	Y3	Z3	X4	Y4	Z4	X5	Y5	Z5	X6	Y6	Z6	X7	Y7	Z7	X8	Y8	Z8	X9	Y9	Z9	X10	Y10	Z10	X11	Y11	Z11	X12	Y12	Z12	X13	Y13	Z13	X14	Y14	Z14	X15	Y15	Z15	X16	Y16	Z16	X17	Y17	Z17	X18	Y18	Z18	X19	Y19	Z19	X20	Y20	Z20	X21	Y21	Z21	X22	Y22	Z22	X23	Y23	Z23	X24	Y24	Z24	X25	Y25	Z25	X26	Y26	Z26	X27	Y27	Z27	X28	Y28	Z28	X29	Y29	Z29	X30	Y30	Z30	X31	Y31	Z31	X32	Y32	Z32	X33	Y33	Z33	X34	Y34	Z34	X35	Y35	Z35	X36	Y36	Z36	X37	Y37	Z37	X38	Y38	Z38	X39	Y39	Z39	X40	Y40	Z40	X41	Y41	Z41
																																																																																																																												
241	8.06	286.11078	1558.30185	1357.71637	102.92311	1580.88684	1350.96176	303.25891	1600.12695	1236.86264	102.01203	1629.17969	1246.09253	241.05032	1359.47998	1240.77103	120.87044	1361.41876	1237.22595	259.53836	1457.12479	1118.33763	104.61888	1461.0408	1122.95448	178.42581	1325.46463	1000.10147	184.75372	1287.35992	1258.39279	179.51839	1183.66653	1252.69737	373.25443	1386.50009	1181.78482	418.30387	1158.37509	1161.1467	438.08037	1075.59753	1116.08459	448.35316	958.358	1151.62376	377.42996	840.16975	1224.61327	423.74008	825.63377	1160.16335	426.86207	784.9102	1221.11389	-5.88104	1382.94525	1188.89786	-81.36662	1225.29823	1118.53249	-110.19879	1111.53061	1088.5714	-121.49937	971.06796	1105.06882	-45.01075	858.3786	1179.89479	-119.75637	847.97493	1142.02744	-99.54666	805.52292	1200.08835	270.08671	937.65213	1205.05249	35.91472	930.3717	1186.59042	228.49585	990.69107	983.64838	84.08191	989.90669	975.04555	273.68465	702.75986	1017.83997	284.35989	463.44692	1158.36868	252.66584	286.31308	1197.20848	244.05424	88.97184	1144.99832	186.57757	77.58243	1096.84372	222.31236	43.70078	1324.22272	31.60279	686.07857	973.69278	-1.80139	448.2267	1031.7997	62.43344	280.11118	960.94551	61.96572	162.87838	772.81326	135.6872	196.29482	751.50673	52.76583	47.13764	882.5856
242	8.093	289.0304	1557.68021	1378.48328	105.90211	1580.51651	1371.10092	306.65821	1600.00839	1257.9158	105.42712	1629.24194	1266.65947	243.9241	1359.76852	1261.16211	123.68663	1361.80359	1255.99052	263.89597	1457.65427	1139.10088	109.00821	1461.9104	1141.52176	184.22747	1326.44485	1019.35707	187.39964	1287.67044	1277.93571	182.3735	1184.02504	1271.87614	376.50272	1386.98196	1203.48457	424.00475	1159.67918	1187.63283	446.14857	1076.48895	1144.49188	456.94973	960.17181	1182.48245	385.43858	842.63382	1255.82603	433.7619	827.39845	1193.12782	435.5872	788.08807	1255.00374	-2.512	1383.80096	1205.48592	-78.17129	1228.12424	1131.06514	-107.99572	1115.19508	1099.30244	-120.28823	974.53972	1115.67421	-46.24886	861.77925	1192.75124	-120.02249	851.52725	1152.97844	-101.69914	809.49814	1211.89789	274.62624	938.55408	1224.32442	40.55022	932.24327	1205.40794	232.28323	991.34445	1002.6104	88.08214	988.80615	993.18367	277.84908	705.26962	1033.10883	287.09888	463.34846	1167.14104	254.50113	285.29686	1201.79642	243.91907	89.11937	1145.97939	186.99986	78.65907	1097.32292	221.9132	43.19551	1324.65164	31.69865	681.99173	1002.73628	-3.79148	448.4491	1071.22993	60.89405	283.84413	995.04753	62.28417	174.63718	801.6082	136.81334	207.20133	783.74153	45.22476	52.12614	910.43205
243	8.127	291.00222	1556.69922	1398.60229	108.05867	1579.81567	1391.19446	309.17685	1600.159	1278.60283	107.95508	1629.40247	1286.65298	245.99047	1360.55054	1280.53238	125.78548	1362.50687	1273.74962	267.56636	1458.4668	1158.54767	112.71432	1462.95441	1159.16092	189.44714	1327.70126	1037.33467	189.36853	1288.27393	1296.27121	184.56087	1184.61304	1289.79523	379.13635	1388.0217	1224.39857	428.67847	1161.38512	1213.36952	452.52991	1077.60033	1172.59346	464.39423	962.52182	1213.37227	393.19279	845.80208	1288.23181	443.34881	829.88251	1226.57898	444.2215	792.29286	1290.12466	0.11955	1384.85443	1221.27022	-74.47839	1229.99969	1143.62564	-104.37304	1117.95906	1110.06454	-118.12474	977.1843	1126.05667	-48.21707	864.30664	1206.91429	-120.00919	854.18091	1163.56575	-105.13985	812.63962	1223.55286	278.84697	939.27773	1242.47459	44.71631	934.86755	1224.1526	236.13436	991.78391	1020.36964	91.83896	988.69308	1011.04805	279.48879	707.08717	1047.48726	288.73318	463.01815	1176.07048	255.35801	284.18375	1206.75598	243.24203	89.35571	1146.95885	186.68795	79.74208	1098.04626	221.45164	42.80253	1325.09293	32.00584	679.53125	1031.27579	-3.51993	450.14439	1111.6552	60.39778	286.59473	1034.2041	61.85462	180.67009	838.64212	136.05765	209.24496	822.42409	39.29789	59.35693	950.68336
244	8.16	292.02383	1555.8168	1418.01086	109.11839	1578.9563	1409.98962	310.94986	1600.68817	1298.70285	109.68361	1629.48273	1305.68985	247.71961	1361.40213	1298.94867	127.52777	1363.33282	1290.93735	270.63416	1459.35272	1177.37831	115.84036	1463.85406	1176.21315	194.16515	1328.70926	1055.04173	190.9366	1289.0831	1314.04327	186.37583	1185.44174	1307.30927	381.32118	1389.39514	1244.41307	432.57183	1163.40294	1237.76733	457.46777	1079.06479	1199.17923	470.57568	965.21988	1242.98912	400.86529	849.9057	1321.29868	450.46505	832.61475	1260.09972	452.6712	797.19193	1324.52209	2.35712	1385.74066	1236.60095	-71.01393	1231.27075	1156.52077	-100.1103	1119.61655	1121.65184	-115.52111	978.9299	1137.30347	-49.96403	865.7991	1221.37375	-119.69584	856.02386	1174.9321	-108.2663	814.77341	1235.64072	282.99042	939.62509	1259.64394	48.85021	937.85812	1242.22549	239.07116	992.13333	1037.41806	94.85312	989.10614	1028.63113	279.82853	708.7664	1061.05576	289.6928	462.50942	1185.00244	255.67682	283.11527	1211.84753	242.56451	89.77109	1147.827	186.19785	80.75747	1098.77914	221.04052	42.44958	1325.52551	32.01797	678.06496	1060.04944	-2.20793	453.00484	1152.65854	60.71954	287.46374	1078.2988	59.51632	178.66423	885.08339	132.83239	203.69312	867.05887	36.66991	61.58779	1003.82965
245	8.193	292.37444	1555.41779	1436.86386	109.31921	1577.92389	1427.46399	312.04241	1601.16089	1317.89047	110.53705	1629.15482	1323.4343	249.17473	1362.18384	1316.98532	129.14601	1363.82843	1307.71622	273.35043	1459.99588	1195.51384	118.63348	1464.30481	1192.85057	198.44864	1329.17007	1072.53044	192.43498	1289.71237	1331.53259	188.1802	1186.06415	1324.69635	383.35583	1390.86685	1263.97697	435.91198	1165.46547	1261.09497	461.17012	1080.37781	1223.77876	475.40516	967.78969	1271.2545	407.65408	854.80911	1354.37622	456.43311	835.74997	1292.59979	460.00446	802.45598	1357.99118	4.50877	1386.15601	1251.89087	-67.61371	1231.83083	1170.11398	-96.15553	1120.49309	1134.20555	-113.19736	980.04234	1149.79462	-51.02931	866.72997	1236.19324	-119.49699	857.32704	1187.79335	-110.09268	816.21132	1248.8604	286.90239	939.44489	1276.41479	52.90082	940.20172	1259.89601	241.00782	992.117	1054.00566	96.81866	989.08554	1046.11305	280.08253	709.95033	1075.04601	290.42372	462.12852	1194.78943	256.00534	281.88169	1217.24762	242.08786	90.11863	1148.97125	185.95997	81.82293	1099.59694	220.79676	42.31502	1325.93475	31.39294	676.77704	1088.29689	0.47572	455.18463	1194.13109	61.49717	286.12209	1125.92606	54.68446	166.88232	939.33189	127.72231	190.62172	917.05513	36.08457	60.21864	1067.81799
